<svg xmlns="http://www.w3.org/2000/svg" viewBox="0 0 800 420" font-family="Segoe UI, sans-serif">
<rect width="800" height="420" fill="#0d1117" rx="8"/>
<text x="64" y="30" fill="#e6edf3" font-size="17" font-weight="700">★ Star History — timoncool/Qwen3-TTS_portable_rus</text>
<text x="776" y="30" fill="#e6edf3" font-size="14" text-anchor="end">137 stars · updated 2026-09-24</text>
<line x1="64" y1="364.0" x2="776" y2="364.0" stroke="#30363d" stroke-width="1"/><text x="54" y="368.0" fill="#e6edf3" font-size="13" text-anchor="end">0</text><line x1="64" y1="285.6" x2="776" y2="285.6" stroke="#30363d" stroke-width="1"/><text x="54" y="289.6" fill="#e6edf3" font-size="13" text-anchor="end">34</text><line x1="64" y1="207.2" x2="776" y2="207.2" stroke="#30363d" stroke-width="1"/><text x="54" y="211.2" fill="#e6edf3" font-size="13" text-anchor="end">68</text><line x1="64" y1="126.4" x2="776" y2="126.4" stroke="#30363d" stroke-width="1"/><text x="54" y="130.4" fill="#e6edf3" font-size="13" text-anchor="end">103</text><line x1="64" y1="48.0" x2="776" y2="48.0" stroke="#30363d" stroke-width="1"/><text x="54" y="52.0" fill="#e6edf3" font-size="13" text-anchor="end">137</text>
<path d="M64.0,364.0 L64.0,361.7 L64.2,359.4 L65.5,357.1 L66.4,354.8 L66.6,352.5 L66.7,350.2 L66.7,347.9 L66.8,345.5 L66.8,343.2 L67.0,340.9 L67.0,338.6 L67.0,336.3 L67.1,334.0 L67.1,331.7 L67.4,329.4 L67.5,327.1 L67.5,324.8 L67.8,322.5 L67.8,320.2 L67.8,317.9 L67.8,315.6 L67.9,313.3 L68.1,310.9 L68.2,308.6 L69.3,306.3 L69.3,304.0 L69.3,301.7 L69.5,299.4 L69.6,297.1 L69.6,294.8 L70.1,292.5 L72.0,290.2 L72.7,287.9 L73.1,285.6 L73.2,283.3 L73.2,281.0 L73.4,278.7 L73.7,276.4 L75.8,274.0 L79.3,271.7 L80.1,269.4 L84.4,267.1 L85.1,264.8 L85.4,262.5 L85.5,260.2 L86.9,257.9 L87.7,255.6 L88.0,253.3 L89.4,251.0 L89.6,248.7 L89.9,246.4 L93.1,244.1 L94.8,241.8 L95.9,239.4 L96.1,237.1 L97.1,234.8 L99.9,232.5 L104.7,230.2 L105.0,227.9 L122.4,225.6 L130.0,223.3 L141.3,221.0 L148.1,218.7 L152.9,216.4 L158.8,214.1 L161.8,211.8 L163.8,209.5 L163.8,207.2 L163.9,204.8 L176.2,202.5 L178.8,200.2 L196.0,197.9 L204.5,195.6 L205.5,193.3 L230.2,191.0 L231.9,188.7 L241.8,186.4 L243.1,184.1 L243.7,181.8 L248.7,179.5 L248.9,177.2 L251.0,174.9 L263.5,172.6 L283.0,170.2 L284.8,167.9 L299.4,165.6 L304.2,163.3 L305.6,161.0 L305.7,158.7 L312.2,156.4 L325.2,154.1 L325.8,151.8 L325.8,149.5 L327.0,147.2 L329.9,144.9 L363.5,142.6 L385.9,140.3 L400.4,138.0 L402.4,135.6 L438.2,133.3 L438.3,131.0 L442.6,128.7 L445.5,126.4 L447.4,124.1 L451.2,121.8 L452.0,119.5 L470.5,117.2 L470.8,114.9 L480.3,112.6 L487.8,110.3 L496.6,108.0 L499.6,105.7 L502.6,103.4 L507.1,101.1 L515.5,98.7 L530.0,96.4 L543.7,94.1 L557.9,91.8 L561.3,89.5 L579.6,87.2 L599.8,84.9 L615.5,82.6 L631.9,80.3 L632.4,78.0 L633.0,75.7 L633.4,73.4 L642.8,71.1 L648.4,68.8 L648.9,66.5 L656.3,64.1 L659.3,61.8 L666.5,59.5 L669.8,57.2 L696.0,54.9 L719.6,52.6 L728.1,50.3 L776.0,48.0 L776.0,48.0" fill="none" stroke="#4f8ff7" stroke-width="2.5" stroke-linejoin="round"/>
<circle cx="776.0" cy="48.0" r="4" fill="#4f8ff7"/>
<text x="64.0" y="388" fill="#e6edf3" font-size="13" text-anchor="middle">Jan 24, 2026</text><text x="301.3" y="388" fill="#e6edf3" font-size="13" text-anchor="middle">Apr 15, 2026</text><text x="538.7" y="388" fill="#e6edf3" font-size="13" text-anchor="middle">Jul 05, 2026</text><text x="776.0" y="388" fill="#e6edf3" font-size="13" text-anchor="middle">Sep 24, 2026</text>
</svg>